PathFileType	4	(X/Y/Z)	D:\MotionData\NordSprintingStudy\Kristen_Nord_test_zero_plates\Trimmed_NordZeroed000004.trc
DataRate	CameraRate	NumFrames	NumMarkers	Units	OrigDataRate	OrigDataStartFrame	OrigNumFrames
200.00	200.00	      6	52	mm	200.00	718	      1912
Frame#	Time	C7			R_Shoulder			L_Shoulder			Sternum			R_humerus			R_elbow_med			R_elbow_lat			R_forearm			R_wrist_radius			R_wrist_ulna			L_humerus			L_elbow_med			L_elbow_lat			L_forearm			L_wrist_radius			L_wrist_ulna			r.ASIS			r.PSIS			r_IC			L.ASIS			L.PSIS			l_IC			r_thigh1			r_thigh2			r_thigh3			r_thigh4			r_thigh5			r_knee			r_mknee			r_shank_antsup			r_sh2			r_sh3			r_sh4			r_ankle			r_mankle			r_calc			r_5meta			r_toe			L_thigh1			L_thigh2			L_thigh3			L_thigh4			L_knee			L_mknee			L_shank_antsup			L_sh2			L_sh3			L_ankle			L_mankle			L_calc			L_5meta			L_toe			
		X1	Y1	Z1	X2	Y2	Z2	X3	Y3	Z3	X4	Y4	Z4	X5	Y5	Z5	X6	Y6	Z6	X7	Y7	Z7	X8	Y8	Z8	X9	Y9	Z9	X10	Y10	Z10	X11	Y11	Z11	X12	Y12	Z12	X13	Y13	Z13	X14	Y14	Z14	X15	Y15	Z15	X16	Y16	Z16	X17	Y17	Z17	X18	Y18	Z18	X19	Y19	Z19	X20	Y20	Z20	X21	Y21	Z21	X22	Y22	Z22	X23	Y23	Z23	X24	Y24	Z24	X25	Y25	Z25	X26	Y26	Z26	X27	Y27	Z27	X28	Y28	Z28	X29	Y29	Z29	X30	Y30	Z30	X31	Y31	Z31	X32	Y32	Z32	X33	Y33	Z33	X34	Y34	Z34	X35	Y35	Z35	X36	Y36	Z36	X37	Y37	Z37	X38	Y38	Z38	X39	Y39	Z39	X40	Y40	Z40	X41	Y41	Z41	X42	Y42	Z42	X43	Y43	Z43	X44	Y44	Z44	X45	Y45	Z45	X46	Y46	Z46	X47	Y47	Z47	X48	Y48	Z48	X49	Y49	Z49	X50	Y50	Z50	X51	Y51	Z51	X52	Y52	Z52	

718	3.585	1230.71838	566.99121	1241.99451	1347.73010	617.45959	1237.87317	1096.42676	592.12146	1248.20947	1213.70801	678.82733	1163.63489	1511.19934	551.26752	1209.71069	1641.92944	578.89636	1135.28699	1625.82971	512.95026	1187.18188	1625.44299	598.73834	1279.21106	1577.87195	714.28351	1321.56665	1637.35315	687.51379	1349.22046	950.01642	490.21518	1212.34802	792.31714	513.84778	1154.89233	821.20355	457.29001	1219.17639	840.12866	528.50055	1292.54004	846.39740	635.50922	1357.49097	917.41278	630.04877	1334.95068	1343.31055	529.05280	712.32642	1310.94910	404.13834	862.36761	1388.17957	497.20572	822.85046	1114.55884	499.93176	708.14697	1196.75793	389.80157	864.56750	1083.59705	487.93875	816.57172	1363.66956	462.01913	488.28635	1356.93738	422.66849	378.94009	1394.03699	385.11630	360.45529	1422.12756	374.92218	515.70551	1410.47974	337.78427	405.05124	1394.81299	312.19989	304.42886	1271.04468	298.75735	308.18121	1419.16248	206.54541	308.73502	1427.19824	84.87098	318.94495	1423.46704	210.24832	386.29114	1414.66919	93.83290	399.22781	1426.67236	-74.70990	363.10904	1349.31396	-75.87141	343.21915	1361.87720	-79.87817	435.50317	1429.67603	-194.71477	299.39041	1391.04004	-180.64552	251.00589	1038.78284	399.33856	536.43835	1029.81982	351.28323	404.77530	1050.55884	288.66159	580.01984	1060.72717	246.25049	447.62424	1032.91907	263.28763	337.71509	1160.69189	266.11948	309.79468	1026.04529	164.81516	322.35468	1039.89111	173.31599	410.50391	1048.56433	51.50074	410.84039	1083.07874	-111.37612	378.58865	1157.48169	-102.26292	349.87909	1127.16663	-115.55642	436.33002	1106.50977	-243.12421	298.37274	1140.85498	-216.12527	255.73865	
719	3.590	1230.69495	567.16022	1242.01672	1347.65991	617.43695	1237.54004	1096.37952	592.33551	1248.16345	1213.66309	678.98865	1163.56934	1511.11121	551.34760	1209.60632	1641.88074	579.01825	1135.22791	1625.81287	513.09753	1187.20483	1625.38403	598.94061	1279.13892	1577.84839	714.53442	1321.40356	1637.27686	687.74933	1349.09985	949.93909	490.33188	1212.26563	792.29730	514.05145	1154.80151	821.12311	457.52866	1219.11194	840.06195	528.74786	1292.41394	846.43188	635.76776	1357.44604	917.38281	630.30304	1334.83435	1343.32117	529.08411	712.31097	1310.92676	404.19016	862.39514	1388.16931	497.21741	822.83868	1114.54468	499.96454	708.11084	1196.74512	389.86749	864.55109	1083.59192	488.01123	816.54639	1363.67505	462.05444	488.29849	1356.91077	422.70206	378.93228	1394.08936	385.10229	360.50311	1422.13074	374.89679	515.71057	1410.61011	337.79327	405.20898	1394.40967	312.38745	304.24478	1271.04431	298.77081	308.19611	1419.15833	206.55125	308.77509	1427.22473	84.85802	318.97037	1423.44006	210.26262	386.28674	1414.74243	93.87490	399.31119	1426.65417	-74.71278	363.15836	1349.36267	-75.89381	343.11755	1361.88623	-79.88139	435.47189	1429.67786	-194.68976	299.40216	1391.02124	-180.61252	251.10107	1038.77405	399.31638	536.42755	1029.85510	351.32242	404.78064	1050.52539	288.78189	580.01379	1060.73853	246.25859	447.63889	1032.89746	263.28897	337.69397	1160.68591	266.09747	309.76740	1026.01538	164.81998	322.35336	1039.87817	173.33058	410.55930	1048.53186	51.52571	410.79916	1083.03333	-111.33575	378.64011	1157.43823	-102.29412	349.91916	1127.11169	-115.57819	436.33832	1106.47852	-243.13312	298.32294	1140.79041	-216.12791	255.79730	
720	3.595	1230.69873	567.29254	1242.02930	1347.63586	617.58282	1237.52063	1096.34644	592.51318	1248.08569	1213.60413	679.11688	1163.49695	1511.08484	551.53790	1209.54883	1641.84351	579.13135	1135.15796	1625.76636	513.24341	1187.17078	1625.33789	599.12317	1279.07385	1577.82495	714.74371	1321.24634	1637.19727	687.97607	1348.99109	949.85394	490.55164	1212.21899	792.26172	514.22577	1154.68628	821.05469	457.74237	1219.03174	840.00275	529.03784	1292.33398	846.39337	636.03711	1357.27136	917.62848	630.25201	1334.80627	1343.33569	529.10400	712.26471	1310.92419	404.25787	862.37067	1388.18298	497.26144	822.81195	1114.56201	500.06204	708.04395	1196.73145	389.93216	864.53735	1083.60034	488.11865	816.52478	1363.70862	462.09067	488.32388	1356.90027	422.70441	378.96533	1394.06360	385.09454	360.50238	1422.12634	374.88019	515.71454	1410.47876	337.80325	405.08640	1394.40503	312.38528	304.22440	1271.07080	298.77911	308.17877	1419.15186	206.54546	308.79980	1427.17944	84.86556	319.00909	1423.42651	210.26645	386.34573	1414.50793	93.86240	399.27618	1426.66272	-74.71312	363.13925	1349.29114	-75.85931	343.25644	1361.88586	-79.90855	435.51782	1429.68286	-194.71776	299.39902	1391.01892	-180.65459	251.01869	1038.80762	399.38696	536.39777	1029.82202	351.33850	404.79495	1050.53442	288.71411	580.04938	1060.73169	246.28816	447.64694	1032.89197	263.27158	337.72250	1160.66052	266.16953	309.73764	1026.01355	164.82030	322.35956	1039.86182	173.33003	410.58038	1049.10315	51.21125	410.12140	1082.97095	-111.39866	378.58319	1157.41431	-102.28120	349.91541	1127.05798	-115.59396	436.32587	1106.40723	-243.16798	298.36996	1140.76697	-216.12762	255.78282	
721	3.600	1230.69922	567.45892	1242.04529	1347.64417	617.74268	1237.44482	1096.28918	592.64832	1248.03052	1213.51709	679.26611	1163.44287	1511.08228	551.65009	1209.48755	1641.82104	579.24023	1135.08081	1625.72888	513.66760	1186.90686	1625.27893	599.32922	1278.97461	1577.79260	714.96045	1321.13538	1637.14343	688.25067	1348.94202	949.82697	490.73871	1212.10425	792.23047	514.42969	1154.56604	820.97980	457.96036	1218.93262	839.92761	529.25952	1292.10962	846.29889	636.19684	1357.21960	917.60535	630.49487	1334.67664	1343.36511	529.15356	712.24982	1310.92505	404.32721	862.34613	1388.22009	497.32028	822.77997	1114.56213	500.07260	708.03668	1196.73340	390.00330	864.52765	1083.61597	488.20676	816.48700	1363.73694	462.09583	488.29755	1356.90283	422.71851	378.94064	1394.06482	385.12573	360.51038	1422.13049	374.94183	515.73853	1410.45422	337.82257	405.06610	1394.42871	312.40015	304.21536	1271.04797	298.77441	308.19421	1419.12744	206.56570	308.78149	1427.16882	84.84734	319.01129	1423.43005	210.24942	386.36618	1414.80164	93.86963	399.41913	1426.69128	-74.71071	363.10062	1349.32007	-75.86828	343.09296	1361.84875	-79.90979	435.50967	1429.69434	-194.71468	299.36719	1391.14197	-180.56990	251.04749	1038.75012	399.35583	536.39642	1029.82312	351.31467	404.79327	1050.53333	288.78009	580.03400	1060.72681	246.28395	447.67120	1032.88037	263.26974	337.69708	1160.64185	266.21133	309.69150	1025.99548	164.80873	322.39484	1039.85303	173.34695	410.61230	1048.54553	51.49613	410.84189	1082.94543	-111.36417	378.61044	1157.38293	-102.30440	349.89063	1127.00867	-115.60232	436.29349	1106.39966	-243.14470	298.27710	1140.71802	-216.16866	255.74863	
722	3.605	1230.65112	567.58325	1241.98267	1347.62756	617.89404	1237.38550	1095.85449	593.14270	1247.32373	1213.49365	679.39099	1163.34351	1511.05920	551.78882	1209.47791	1641.79370	579.37000	1134.99402	1625.71094	513.81573	1186.86023	1625.24670	599.50995	1278.91040	1577.85229	714.88965	1320.94629	1637.12122	688.45587	1348.84106	949.80164	490.93698	1212.00037	792.18317	514.61523	1154.45435	820.92828	458.15872	1218.84351	839.90027	529.46826	1292.05859	846.40479	636.60522	1356.85315	917.56079	630.70026	1334.53503	1343.39270	529.21356	712.18933	1310.97620	404.40411	862.24915	1388.23914	497.36090	822.69336	1114.56189	500.14243	707.91815	1196.73621	390.09137	864.46271	1083.61707	488.27158	816.45331	1363.76086	462.06842	488.28662	1357.43555	423.31027	378.90720	1394.09192	385.13419	360.49387	1422.14758	374.95609	515.72015	1410.45874	337.84433	405.08377	1394.45117	312.40323	304.16833	1271.06812	298.75653	308.20343	1419.14319	206.57465	308.79663	1427.15991	84.87363	319.00159	1423.42456	210.25450	386.34793	1414.72729	93.84664	399.32388	1426.71143	-74.70520	363.00558	1349.29480	-75.88943	343.18710	1361.90295	-79.90718	435.43390	1429.71741	-194.70502	299.26205	1391.28955	-180.48828	250.95230	1038.78406	399.40369	536.38562	1029.79150	351.31238	404.80807	1050.55469	288.78915	580.01227	1060.71436	246.29904	447.68341	1032.89697	263.26212	337.72345	1160.63245	266.19940	309.72543	1025.97717	164.80182	322.40051	1039.89319	173.36635	410.56638	1048.47192	51.50065	410.85620	1082.90857	-111.33836	378.58395	1157.39880	-102.29871	349.76395	1126.96680	-115.60189	436.24188	1106.31641	-243.14134	298.28195	1140.66003	-216.17863	255.69733	
723	3.610	1230.65076	567.69672	1241.93909	1347.63123	618.02844	1237.33142	1095.83521	593.30658	1247.19373	1213.43433	679.52637	1163.28943	1511.03857	551.89532	1209.42725	1641.79773	579.45667	1134.86316	1625.68225	513.89252	1186.80945	1625.20728	599.68213	1278.78064	1577.82800	715.05518	1320.81775	1637.07605	688.63757	1348.72791	949.76965	491.09933	1211.89673	792.13501	514.80640	1154.34363	820.85266	458.38028	1218.73535	839.87854	529.70868	1291.89563	846.37891	636.87292	1356.71069	917.53125	630.94397	1334.40808	1343.44629	529.27173	712.13617	1310.98938	404.48254	862.20514	1388.28674	497.41797	822.58405	1114.58044	500.19980	707.92249	1196.75439	390.21262	864.37646	1083.62439	488.37177	816.42804	1363.72461	462.12827	488.24091	1357.48181	423.30450	378.91302	1394.11536	385.13757	360.48410	1422.12695	374.98666	515.71448	1410.45544	337.84521	405.04990	1394.51184	312.41568	304.06760	1271.06348	298.77789	308.20673	1419.15649	206.59416	308.77008	1427.19592	84.88329	318.97751	1423.44287	210.25783	386.32965	1414.73950	93.82248	399.39542	1426.72388	-74.70876	362.98514	1349.34973	-75.94842	343.03165	1361.97388	-79.91281	435.33670	1429.73987	-194.68649	299.17435	1391.32532	-180.52872	250.71457	1038.75403	399.41071	536.37335	1029.80432	351.30170	404.80249	1050.54626	288.84583	580.04340	1060.72205	246.29477	447.69550	1032.87659	263.27271	337.67404	1160.65405	266.17575	309.74484	1025.98376	164.78734	322.40521	1039.90466	173.35933	410.58929	1048.45325	51.52349	410.88153	1082.84204	-111.43005	378.51736	1157.35803	-102.37349	349.65729	1126.93896	-115.59878	436.19290	1106.32056	-243.16769	298.23550	1140.63342	-216.18959	255.69322	
